<svg version="1.2" xmlns="http://www.w3.org/2000/svg" viewBox="0 0 66 67" width="66" height="67">
	<title>BEM-svg</title>
	<style>
		.s0 { fill: #cfc9c2 } 
	</style>
	<path id="Layer" fill-rule="evenodd" class="s0" d="m0 10.3h15.4v5.6h-15.4zm0-10.3h15.4v5.5h-15.4zm27.7 20.6c6.3 0 10 2.6 11.2 7.6v3.1c-2.5-5-9.3-5.1-12.3-5.1h-26.6v-5.6zm0.1 10.3c4.4 0 9.8 0.7 11.1 4.6v2.4c-1.7-1.1-5.8-1.4-12.2-1.4h-26.7v-5.6zm-27.7 26.3v-5.6h26.6c2.9 0 9.7-0.1 12.3-5.1v3.1c-1.3 4.9-4.9 7.6-11.2 7.6zm0-10.4v-5.5h26.6c6.5 0 10.6-0.3 12.3-1.5v2.5c-1.3 3.9-6.8 4.5-11.2 4.5zm38.8 15.5v-2c1.5 3 5.7 3.1 7.4 3.1h19.8v3.4h-20.4c-3.8 0-6.1-1.6-6.8-4.5zm6.8-1.8c-2.7 0-6-0.4-6.8-2.8v-1.5c1 0.7 3.5 0.9 7.4 0.9h19.7v3.4z"/>
</svg>