<svg version="1.2" xmlns="http://www.w3.org/2000/svg" viewBox="0 0 67 69" width="67" height="69">
	<title>git-svg</title>
	<style>
		.s0 { fill: #ece0cc } 
	</style>
	<path id="Layer" class="s0" d="m67 36.6c0 1.1-0.5 2.2-1.3 3l-29.1 29.3c-0.8 0.8-1.9 1.3-3 1.3-1.2 0-2.3-0.5-3.1-1.3l-29.2-29.4c-0.8-0.8-1.3-1.9-1.3-3.1 0-1.1 0.5-2.2 1.3-3l20-20.2 7.6 7.6c-0.9 2.2-0.3 5.5 2.8 6.8v18.5c-3.3 1.4-4.3 5.8-1.7 8.4 1 1 2.3 1.5 3.7 1.5 1.3 0 2.6-0.5 3.6-1.5 2-2 2.4-6.4-1.4-8.2v-18.4l7 7c-2.2 5.2 4.4 9.6 8.3 5.6 3.9-3.9-0.2-10.3-5.3-8.5l-7.4-7.5c1.4-4-2.4-7.9-6.5-6.6l-7.7-7.7 6.1-6.1c0.8-0.8 1.9-1.3 3-1.3 1.2 0 2.3 0.5 3.1 1.3l29.2 29.4c0.8 0.8 1.3 1.9 1.3 3.1z"/>
</svg>