<svg version="1.2" xmlns="http://www.w3.org/2000/svg" viewBox="0 0 63 64" width="63" height="64">
	<title>javascript-svg</title>
	<style>
		.s0 { fill: #cfc9c2 } 
	</style>
	<path id="Layer" fill-rule="evenodd" class="s0" d="m63 0.5v63h-63v-63zm-28.7 28.9h-5.9v20.1c0 3-1.3 3.8-3.2 3.8-2.1 0-2.9-1.4-3.8-3.1l-4.8 2.9c1.4 3 4.1 5.5 8.8 5.5 5.3 0 8.9-2.8 8.9-9zm23.8 20.9c0-4.9-2.8-7.1-7.9-9.3l-1.4-0.6c-2.6-1.1-3.7-1.8-3.7-3.6 0-1.4 1.1-2.5 2.8-2.5 1.7 0 2.8 0.7 3.8 2.5l4.7-3c-2-3.4-4.7-4.7-8.4-4.7-5.3 0-8.7 3.4-8.7 7.8 0 4.8 2.8 7.1 7.1 8.9l1.5 0.7c2.7 1.2 4.3 1.9 4.3 3.9 0 1.7-1.6 2.9-4 2.9-2.9 0-4.6-1.5-5.9-3.6l-4.8 2.8c1.7 3.5 5.3 6.1 10.8 6.1 5.6 0 9.8-3 9.8-8.3z"/>
</svg>