<svg version="1.2" xmlns="http://www.w3.org/2000/svg" viewBox="0 0 54 72" width="54" height="72">
	<title>java-svg</title>
	<style>
		.s0 { fill: #cfc9c2 } 
	</style>
	<path id="Layer" fill-rule="evenodd" class="s0" d="m17.6 55.7c-11.1 3.1 6.7 9.5 20.8 3.4-2.3-0.9-4-1.9-4-1.9-6.3 1.2-9.2 1.3-14.9 0.6-4.7-0.5-1.9-2.1-1.9-2.1zm-0.2-5.1c6.2 0.6 11 0.7 19.3-0.9 0 0 1.1 1.1 3 1.8-17.1 4.9-36.1 0.3-23.9-3.7-0.1 0.1-3 2.3 1.6 2.8zm12.9-16.2c-11.7-13.5 12.9-19.7 12.9-19.7-15.7 9.1-12.8 11.8-9 17.1 4 5.7-4.8 10.2-4.8 10.2 0 0 4.4-3.6 1-7.6zm-26.3 32.6c-10.6-1.7 5-7.7 7.9-5.7 0 0-0.9-0.1-2.5 0.3-1.5 0.3-6.3 1.9-3.8 3 7.2 3.1 32.9 2.3 41-0.1 4.3-1.3 2.3-3 2.3-3 7.5 3.4-16.2 10.1-44.9 5.5zm14.8-27.4c0 0-13.1 3.1-4.7 4.3 3.6 0.4 10.7 0.3 17.4-0.2 5.4-0.5 10.8-1.5 10.8-1.5 0 0-1.9 0.9-3.3 1.8-13.3 3.5-38.9 1.9-31.5-1.7 6.2-3 11.3-2.7 11.3-2.7zm23.5 13.2c13.5-7.1 7.2-13.8 2.9-12.9-1.1 0.2-1.6 0.4-1.6 0.4 0 0 0.4-0.6 1.2-0.9 8.6-3 15.2 9-2.8 13.7 0 0 0.2-0.2 0.3-0.3zm-8.2-52.8c0 0 7.5 7.5-7.1 19-11.7 9.2-2.7 14.5 0 20.5-6.8-6.2-11.8-11.6-8.5-16.6 5-7.4 18.6-11 15.6-22.9zm-14 71.8c-8.5-0.6-10.2-1.9-10.2-1.9 8.1 1.3 21.8 1.5 32.8-0.6 9.8-1.8 10.8-4.1 10.8-4.1-0.5 6.1-20.4 7.4-33.4 6.6z"/>
</svg>