<svg version="1.2" xmlns="http://www.w3.org/2000/svg" viewBox="0 0 72 65" width="72" height="65">
	<title>React-svg</title>
	<style>
		.s0 { fill: #cfc9c2 } 
	</style>
	<path id="Layer" fill-rule="evenodd" class="s0" d="m57 44.1c2.1 9.4 1.2 16.8-3 19.1q-1.5 0.9-3.3 0.9c-4 0-9.3-2.9-14.6-7.8-5.4 4.9-10.7 7.8-14.7 7.8q-1.9 0-3.3-0.8c-4.1-2.4-5.1-9.8-3-19.1-9.1-2.8-15.1-7.4-15.1-12.1 0-4.8 5.9-9.3 15.1-12.1-2.2-9.3-1.2-16.7 2.9-19.1q1.5-0.8 3.3-0.8c4 0 9.3 2.8 14.7 7.8 5.3-5 10.6-7.9 14.6-7.9 1.2 0 2.3 0.3 3.3 0.8 4.1 2.4 5.1 9.8 3 19.2 9.1 2.8 15.1 7.3 15.1 12.1 0 4.7-5.9 9.2-15 12zm-6.4-40.8c-3 0-7.5 2.4-12.3 6.9q3.3 3.4 6.1 7.3 4.7 0.5 9.3 1.6 0.5-2.2 0.8-4.3c0.7-5.6-0.2-10-2.2-11.1q-0.7-0.4-1.7-0.4zm-29.3 0v0.1q-1 0-1.7 0.3c-2 1.2-2.8 5.6-2.1 11.2q0.3 2.1 0.7 4.2 4.7-1.1 9.4-1.6c1.9-2.7 4-5.2 6-7.3-4.7-4.4-9.3-6.9-12.3-6.9zm31.6 19q-2.9-0.7-6-1.2 2.2 3.4 4 7 1.1-2.9 2-5.8zm-3.7 9.8q-1.4-3-3-5.9-1.8-2.9-3.6-5.6-6.6-0.5-13.2 0.1-3.8 5.4-6.6 11.4 2.8 6 6.6 11.4 6.6 0.6 13.2 0 1.9-2.7 3.6-5.6 1.6-2.8 3-5.8zm-2.3 10.9q3.1-0.4 6-1.1c-0.5-2-1.2-3.9-2-5.9q-1.8 3.6-4 7zm-6.8 4q-2 0.1-4.1 0.1-2.1 0-4.1-0.1 2.1 2.6 4.1 4.7 2.1-2.1 4.1-4.7zm-17.1-7.4q-1-1.8-1.9-3.5c-0.8 1.9-1.5 3.9-2 5.8q3 0.7 6 1.1-1.1-1.6-2.1-3.4zm8.9-22.4q2-0.1 4.1-0.1 2 0 4 0.1-2-2.6-4-4.7-2.1 2.1-4.1 4.7zm-12.9 5.1q0.9 3 2.1 5.8 1.8-3.6 4-7-3.2 0.5-6.1 1.2zm-3.1 18.7q1.3-4.6 3.3-8.9-2.1-4.6-3.3-8.9c-1.4 0.4-2.8 0.9-4.1 1.5-5.2 2.2-8.5 5.1-8.5 7.4 0 2.3 3.3 5.2 8.5 7.4q2 0.9 4.1 1.5zm3.8 19.5q0.8 0.4 1.7 0.4c3 0 7.5-2.5 12.3-6.9q-3.3-3.5-6.1-7.3c-3.3-0.4-6.5-0.9-9.3-1.6-0.4 1.4-0.6 2.9-0.8 4.3-0.7 5.6 0.2 9.9 2.2 11.1zm34.1-15.5q-4.7 1.2-9.4 1.6-2.8 3.9-6 7.4c4.7 4.4 9.2 6.8 12.3 6.8q1 0 1.7-0.4c2-1.1 2.8-5.5 2.1-11.1q-0.2-2.1-0.7-4.3zm14.9-12.9c0-2.3-3.3-5.2-8.5-7.4q-2-0.9-4.1-1.5-1.3 4.3-3.3 8.8 2 4.4 3.3 9c1.4-0.5 2.8-1 4.1-1.5 5.2-2.2 8.5-5.1 8.5-7.4zm-18.1-32.1v3.3z"/>
</svg>