<svg version="1.2" xmlns="http://www.w3.org/2000/svg" viewBox="0 0 51 59" width="51" height="59">
	<title>sass-svg</title>
	<style>
		.s0 { fill: #cfc9c2 } 
	</style>
	<path id="Layer" fill-rule="evenodd" class="s0" d="m25.8 35.1q0.5-0.2 1-0.4c1.9-0.8 4-1.2 6.1-1.2 7.1 0 11.1 4.6 10.9 8.7-0.1 1.1-0.5 2.1-1.1 3-0.7 0.8-1.6 1.4-2.6 1.8-0.4 0-0.6 0-0.7-0.3 0-0.2 0.1-0.3 0.6-0.6q0.8-0.5 1.4-1.3 0.6-0.8 0.7-1.7c0.3-1.8-1-6.1-7.8-6.9-3.3 0-6.5 0.7-9.4 2.1-0.9 0.5-1.8 1-2.8 1.6q-0.8 0.5-1.5 1 1.2 3 0.9 6.3c-0.2 2.1-1 4.1-2.1 5.9-1.4 2.1-3.4 3.8-5.7 4.8-2.4 0.9-5 1.1-7.5 0.5-1.6-0.4-4.1-3.8-1.9-8.6 1.8-4.2 9.4-8.1 11.4-9.1q0.2-0.1 0.5-0.3c-3.9-3.5-13.9-8.2-15.3-15.4-0.3-2 0.6-6.8 6.6-12.4 5.3-4.7 11.6-8.3 18.4-10.6 10.8-3.8 22.2-1.5 23.9 5.4 1.7 6.7-4.1 14.8-11.7 17.7-4.5 2-9.6 2.5-14.5 1.5q-1.5-0.4-2.6-1.3-1.2-0.9-1.9-2.2c-0.1-0.4-0.4-1.1 0-1.3 0.2-0.1 0.3-0.1 1 0.7 1.1 0.9 2.3 1.5 3.7 1.8 1.4 0.4 2.8 0.4 4.1 0.1 12.5-1.4 20-11 17.6-16.2-1.7-3.7-11.2-5.3-23.2 0.6-14.7 7.3-15.4 13.3-15.6 15.6-0.3 6.3 7.8 9.6 12.1 14.2q0.1 0.1 0.2 0.2c0.8-0.4 1.7-0.9 2.5-1.4 2.2-1.2 3.4-1.8 4.4-2.2zm-7.7 11.9c0.4-1.7 0.4-3.4-0.1-5.1l-0.4 0.2-0.1 0.1q-0.9 0.5-1.4 0.8-2.8 1.8-5.3 4c-2.8 2.6-3.4 6.2-1.9 7.1 1.4 0.8 4.5-0.2 6.8-2.6q1.8-1.9 2.4-4.5z"/>
</svg>