<svg version="1.2" xmlns="http://www.w3.org/2000/svg" viewBox="0 0 61 61" width="61" height="61">
	<title>SpringBoot-svg</title>
	<style>
		.s0 { fill: #cfc9c2 } 
	</style>
	<path id="Layer" fill-rule="evenodd" class="s0" d="m54.6 44.2c-7.4 9.8-23.2 6.5-33.4 7 0 0-1.7 0.1-3.6 0.4 0 0 0.7-0.3 1.6-0.6 7.1-2.5 10.5-3 14.8-5.2 8.1-4.2 16.2-13.2 17.9-22.7-3.1 9.1-12.5 16.9-21.1 20.1-5.9 2.2-16.5 4.3-16.5 4.3q-0.2-0.2-0.4-0.3c-7.2-3.5-7.4-19.1 5.7-24.1 5.7-2.3 11.2-1 17.4-2.5 6.7-1.6 14.3-6.6 17.5-13.1 3.4 10.4 7.6 26.6 0.1 36.7zm5.4-11.1c-1.1 15.6-14.1 27.9-30 27.9-7 0-13.9-2.5-19.3-7.1l-0.2-0.2c0.5 0.4 1 0.6 1.6 0.6 0.7 0 1.3-0.3 1.8-0.8 0.5-0.4 0.8-1.1 0.8-1.8 0-0.7-0.3-1.3-0.8-1.8-0.5-0.5-1.1-0.7-1.8-0.7-0.7 0-1.3 0.2-1.8 0.7-0.5 0.5-0.8 1.1-0.8 1.8 0 0.7 0.3 1.4 0.8 1.8l-0.7-0.5c-3-2.8-5.4-6.3-7.1-10-1.6-3.8-2.5-7.9-2.5-12 0-16.6 13.5-30.1 30-30.1q6.2 0 11.7 2.4c3.7 1.5 7.1 3.8 9.8 6.7q2-2.6 3.2-5.7c3.9 11.5 6.1 21.2 5.3 28.8zm-49.7 20.4l0.2 0.2q-0.1 0-0.2-0.2z"/>
</svg>